<svg version="1.1" xmlns="http://www.w3.org/2000/svg" viewBox="0 0 1057.185546875 1080.333984375" width="2114.37109375" height="2160.66796875">
  <!-- svg-source:excalidraw -->
  
  <defs>
    <style class="style-fonts">
      @font-face {
        font-family: "Virgil";
        src: url("https://excalidraw.com/Virgil.woff2");
      }
      @font-face {
        font-family: "Cascadia";
        src: url("https://excalidraw.com/Cascadia.woff2");
      }
    </style>
  </defs>
  <rect x="0" y="0" width="1057.185546875" height="1080.333984375" fill="#ffffff"></rect><g stroke-linecap="round" transform="translate(114.62109375 16.185302734375) rotate(0 106.033203125 112.890625)"><path d="M67.04 8.3 C77.76 1.96, 92.6 0.48, 105.38 0.48 C118.16 0.47, 131.8 3.31, 143.72 8.28 C155.64 13.25, 167.52 21.13, 176.89 30.28 C186.26 39.44, 194.21 51.21, 199.96 63.2 C205.71 75.2, 209.88 89.01, 211.38 102.27 C212.88 115.54, 212.43 129.7, 208.95 142.8 C205.48 155.9, 198.44 169.83, 190.53 180.87 C182.62 191.92, 172.42 202.03, 161.5 209.08 C150.58 216.13, 137.44 220.76, 125.01 223.16 C112.58 225.56, 99.47 225.79, 86.94 223.47 C74.4 221.16, 60.69 216.24, 49.79 209.25 C38.89 202.27, 29.26 192.61, 21.53 181.57 C13.8 170.53, 6.83 156.25, 3.4 143.02 C-0.02 129.79, -0.17 115.54, 1 102.21 C2.17 88.87, 4.96 75.24, 10.42 63 C15.88 50.77, 23 38.45, 33.76 28.79 C44.51 19.14, 66.79 8.85, 74.95 5.07 C83.11 1.28, 82.26 4.14, 82.72 6.06 M80.01 3.28 C91.11 -2, 104 -1.79, 116.65 -0.42 C129.29 0.95, 144.61 5.02, 155.88 11.51 C167.14 18, 175.84 28.34, 184.22 38.53 C192.61 48.71, 201.35 59.95, 206.21 72.63 C211.08 85.31, 213.49 100.71, 213.39 114.6 C213.29 128.49, 210.57 143.47, 205.63 155.95 C200.68 168.43, 192.62 179.59, 183.71 189.48 C174.79 199.37, 163.71 209.49, 152.12 215.29 C140.53 221.08, 127.13 223.17, 114.15 224.24 C101.16 225.3, 86.3 225.48, 74.22 221.67 C62.15 217.87, 51.56 209.71, 41.71 201.43 C31.86 193.16, 21.92 183.91, 15.14 172.03 C8.37 160.15, 3.34 143.93, 1.06 130.14 C-1.22 116.36, -1.37 102.16, 1.46 89.31 C4.3 76.45, 11.11 64.19, 18.06 53.02 C25.02 41.84, 32.94 30.33, 43.2 22.27 C53.46 14.21, 73.73 7.3, 79.62 4.65 C85.51 2, 78.32 4.75, 78.54 6.35" stroke="#000000" stroke-width="1" fill="none"></path></g><g transform="translate(162.7109375 117.822021484375) rotate(0 60 12.5)"><text x="0" y="18" font-family="Virgil, Segoe UI Emoji" font-size="20px" fill="#000000" text-anchor="start" style="white-space: pre;" direction="ltr">SetUp Java</text></g><g transform="translate(123.400390625 391.427490234375) rotate(0 105 25)"><text x="0" y="18" font-family="Virgil, Segoe UI Emoji" font-size="20px" fill="#000000" text-anchor="start" style="white-space: pre;" direction="ltr">Retrieve cache of </text><text x="0" y="43" font-family="Virgil, Segoe UI Emoji" font-size="20px" fill="#000000" text-anchor="start" style="white-space: pre;" direction="ltr">previous maven builds</text></g><g stroke-linecap="round" transform="translate(110.474609375 305.466552734375) rotate(0 116.59765625 117.091796875)"><path d="M143.75 3.45 C156.23 4.5, 168.38 12.18, 179.35 19.33 C190.31 26.47, 201.49 35.58, 209.53 46.31 C217.56 57.04, 223.69 70.96, 227.55 83.7 C231.42 96.45, 233.38 109.42, 232.7 122.77 C232.03 136.11, 228.66 151.55, 223.5 163.78 C218.34 176.01, 210.77 186.53, 201.75 196.16 C192.74 205.78, 181.33 215.26, 169.4 221.55 C157.46 227.83, 143.38 232.43, 130.15 233.88 C116.91 235.32, 102.91 233.45, 89.97 230.23 C77.04 227.01, 63.6 221.57, 52.53 214.56 C41.46 207.55, 31.59 198.75, 23.53 188.16 C15.48 177.57, 8.15 163.73, 4.18 151.01 C0.2 138.3, -1.12 125.16, -0.32 111.87 C0.47 98.58, 3.64 83.67, 8.97 71.28 C14.29 58.89, 22.45 47.14, 31.6 37.53 C40.75 27.92, 52.13 19.67, 63.87 13.62 C75.61 7.57, 87.84 2.56, 102.05 1.23 C116.26 -0.1, 140.24 4.22, 149.14 5.64 C158.05 7.05, 155.98 8.07, 155.47 9.71 M152.03 7.08 C164.32 8.92, 177.27 15.33, 187.66 23.12 C198.05 30.92, 207.24 42.25, 214.36 53.84 C221.47 65.43, 227.44 79.63, 230.34 92.65 C233.25 105.68, 233.54 118.64, 231.78 132 C230.02 145.36, 226.12 161.06, 219.79 172.82 C213.46 184.58, 203.57 193.74, 193.78 202.57 C184 211.4, 173.23 220.73, 161.06 225.81 C148.89 230.88, 133.91 232.67, 120.75 233.04 C107.59 233.42, 94.7 232.15, 82.12 228.05 C69.55 223.95, 56.24 216.36, 45.3 208.44 C34.36 200.51, 23.41 191.51, 16.46 180.5 C9.52 169.5, 6.03 155.54, 3.63 142.42 C1.24 129.3, 0.29 115.28, 2.08 101.78 C3.88 88.28, 8.2 73.24, 14.4 61.43 C20.59 49.63, 29.33 39.61, 39.25 30.93 C49.16 22.25, 61.71 14.53, 73.89 9.34 C86.06 4.16, 99.44 0.59, 112.28 -0.2 C125.12 -0.99, 144.53 3.18, 150.93 4.59 C157.33 6, 150.88 6.37, 150.68 8.26" stroke="#000000" stroke-width="1" fill="none"></path></g><g stroke-linecap="round" transform="translate(475.705078125 271.154052734375) rotate(0 106.033203125 112.890625)"><path d="M153.52 11.67 C164.87 16.07, 176.28 28.31, 184.8 38.45 C193.32 48.59, 199.99 60.04, 204.66 72.51 C209.33 84.97, 212.83 99.55, 212.81 113.25 C212.78 126.94, 209.27 142.03, 204.52 154.68 C199.77 167.33, 193.01 179.26, 184.3 189.15 C175.6 199.05, 163.78 208.01, 152.3 214.06 C140.82 220.11, 128.25 224.38, 115.42 225.44 C102.59 226.5, 87.68 224.26, 75.31 220.41 C62.94 216.55, 51.13 210.61, 41.19 202.32 C31.26 194.03, 22.27 182.44, 15.7 170.66 C9.13 158.89, 3.94 144.83, 1.77 131.68 C-0.39 118.54, 0.43 105.1, 2.71 91.79 C4.99 78.47, 8.71 63.4, 15.44 51.8 C22.17 40.21, 32.54 30.28, 43.09 22.2 C53.65 14.13, 66.52 6.89, 78.75 3.35 C90.99 -0.2, 103.62 -0.85, 116.51 0.92 C129.39 2.68, 149.03 11.21, 156.04 13.92 C163.05 16.64, 159.38 15.6, 158.58 17.2 M68.66 8.16 C79.26 1.83, 93.58 -0.64, 106.35 -0.63 C119.11 -0.62, 133.48 3.25, 145.25 8.2 C157.03 13.14, 167.46 19.73, 177 29.05 C186.54 38.36, 196.75 51.94, 202.46 64.09 C208.18 76.24, 210.4 88.77, 211.3 101.94 C212.2 115.11, 211.36 129.77, 207.86 143.11 C204.36 156.45, 198.11 171.09, 190.3 181.97 C182.49 192.84, 171.68 201.09, 160.98 208.33 C150.27 215.58, 138.82 222.8, 126.09 225.45 C113.35 228.11, 97.52 226.84, 84.59 224.27 C71.66 221.69, 59.32 217.56, 48.49 210.01 C37.66 202.47, 27.04 189.89, 19.59 179 C12.13 168.1, 7.04 157.51, 3.77 144.62 C0.49 131.74, -1.38 115.63, -0.08 101.68 C1.23 87.73, 5.52 73.18, 11.61 60.93 C17.69 48.69, 26.82 37.38, 36.41 28.21 C46 19.04, 63.69 9.16, 69.13 5.94 C74.58 2.71, 68.48 7.1, 69.06 8.85" stroke="#000000" stroke-width="1" fill="none"></path></g><g transform="translate(496.833984375 359.900146484375) rotate(0 86 25)"><text x="0" y="18" font-family="Virgil, Segoe UI Emoji" font-size="20px" fill="#000000" text-anchor="start" style="white-space: pre;" direction="ltr">Build with Maven</text><text x="0" y="43" font-family="Virgil, Segoe UI Emoji" font-size="20px" fill="#000000" text-anchor="start" style="white-space: pre;" direction="ltr">(executing tests)</text></g><g stroke-linecap="round" transform="translate(835.119140625 275.404052734375) rotate(0 106.033203125 112.890625)"><path d="M98.95 -0.16 C110.72 -2.93, 124.84 1.16, 136.98 5.28 C149.12 9.4, 161.57 16.04, 171.78 24.59 C182 33.13, 191.9 44.8, 198.27 56.55 C204.63 68.29, 208.1 81.62, 209.98 95.05 C211.85 108.49, 211.89 123.95, 209.53 137.17 C207.17 150.4, 202.74 163.1, 195.82 174.41 C188.9 185.71, 178.61 196.87, 167.99 204.98 C157.38 213.1, 144.34 219.76, 132.12 223.08 C119.9 226.4, 107.22 226.49, 94.69 224.9 C82.15 223.31, 68.36 219.93, 56.91 213.53 C45.47 207.14, 34.59 196.75, 26.02 186.53 C17.45 176.32, 9.75 164.86, 5.51 152.23 C1.27 139.61, 0.04 124.49, 0.58 110.8 C1.12 97.11, 3.9 82.81, 8.76 70.1 C13.61 57.38, 21.1 44.41, 29.7 34.51 C38.3 24.62, 46.89 16.41, 60.36 10.71 C73.84 5.02, 100.31 1.56, 110.53 0.35 C120.76 -0.86, 122.02 1.66, 121.71 3.47 M57.17 13.38 C67.58 6.17, 82.87 3.42, 95.32 1.65 C107.77 -0.12, 119.9 -0.69, 131.86 2.76 C143.82 6.2, 156.72 14.18, 167.1 22.3 C177.49 30.42, 187.12 40.46, 194.15 51.49 C201.19 62.51, 206.36 75.16, 209.32 88.45 C212.28 101.74, 214.09 117.74, 211.93 131.23 C209.76 144.73, 202.94 157.74, 196.35 169.43 C189.75 181.13, 181.97 192.99, 172.36 201.43 C162.75 209.86, 150.78 215.85, 138.68 220.03 C126.58 224.21, 112.87 227.19, 99.77 226.51 C86.66 225.82, 71.93 221.89, 60.05 215.91 C48.16 209.92, 37.37 200.4, 28.45 190.57 C19.54 180.74, 11.42 169.61, 6.56 156.92 C1.7 144.23, -0.67 128.42, -0.71 114.43 C-0.74 100.45, 1.67 85.64, 6.35 73.01 C11.02 60.37, 18.95 48.7, 27.34 38.63 C35.73 28.57, 51.41 16.46, 56.71 12.63 C62 8.79, 58.08 13.85, 59.12 15.63" stroke="#000000" stroke-width="1" fill="none"></path></g><g transform="translate(861.390625 366.739990234375) rotate(0 82.5 24.408284023668642)"><text x="0" y="17.40828402366865" font-family="Virgil, Segoe UI Emoji" font-size="19.526627218934912px" fill="#000000" text-anchor="start" style="white-space: pre;" direction="ltr">Upload artifacts</text><text x="0" y="41.8165680473373" font-family="Virgil, Segoe UI Emoji" font-size="19.526627218934912px" fill="#000000" text-anchor="start" style="white-space: pre;" direction="ltr"></text></g><g stroke-linecap="round"><g transform="translate(211.3359375 247.005615234375) rotate(0 0.7507538389414776 27.7649873934686)"><path d="M-0.61 1.19 C-0.28 10.06, 1.69 44.58, 2.11 53.56 M1.27 0.77 C1.5 9.75, 1.54 46.03, 1.58 54.76" stroke="#000000" stroke-width="1" fill="none"></path></g><g transform="translate(211.3359375 247.005615234375) rotate(0 0.7507538389414776 27.7649873934686)"><path d="M-5.78 30.62 C-5.84 38.29, -0.45 45.78, 1.58 55.92 M-7.47 28.81 C-5.55 34.81, -3.16 41.22, 0.85 54.08" stroke="#000000" stroke-width="1" fill="none"></path></g><g transform="translate(211.3359375 247.005615234375) rotate(0 0.7507538389414776 27.7649873934686)"><path d="M12.76 30.57 C6.93 38.16, 6.55 45.67, 1.58 55.92 M11.07 28.76 C8.47 34.67, 6.33 41.1, 0.85 54.08" stroke="#000000" stroke-width="1" fill="none"></path></g></g><g stroke-linecap="round"><g transform="translate(352.52402689329256 390.88376667533913) rotate(0 64.49815127107638 -59.9070097995326)"><path d="M0.59 -0.89 C5.68 -20.8, 9.37 -112.03, 30.86 -120.35 C52.36 -128.66, 113.29 -62.27, 129.55 -50.77 M-0.56 1.25 C4.87 -18.36, 11.46 -110.3, 33.07 -118.76 C54.67 -127.21, 113.19 -60.86, 129.07 -49.49" stroke="#000000" stroke-width="1" fill="none"></path></g><g transform="translate(352.52402689329256 390.88376667533913) rotate(0 64.49815127107638 -59.9070097995326)"><path d="M99.84 -62.52 C110.49 -56.41, 119.27 -54.55, 128 -50.83 M101.08 -61.36 C108.45 -56.58, 117.03 -54.61, 128.28 -49.75" stroke="#000000" stroke-width="1" fill="none"></path></g><g transform="translate(352.52402689329256 390.88376667533913) rotate(0 64.49815127107638 -59.9070097995326)"><path d="M113.66 -77.69 C119.67 -66.55, 123.93 -59.73, 128 -50.83 M114.91 -76.52 C118.52 -67.73, 123.33 -61.62, 128.28 -49.75" stroke="#000000" stroke-width="1" fill="none"></path></g></g><g stroke-linecap="round"><g transform="translate(683.859375 330.036865234375) rotate(0 74.7852467168122 9.98704124731941)"><path d="M-1.06 -0.5 C24.21 2.93, 125.25 17.09, 150.63 20.74 M0.58 -1.81 C25.76 1.73, 124.55 17.72, 149.57 21.79" stroke="#000000" stroke-width="1" fill="none"></path></g><g transform="translate(683.859375 330.036865234375) rotate(0 74.7852467168122 9.98704124731941)"><path d="M119.26 27.05 C124.93 27.1, 132.43 24.95, 148.39 22.47 M119.63 28.09 C128.54 24.89, 136.72 23.39, 149.83 21.77" stroke="#000000" stroke-width="1" fill="none"></path></g><g transform="translate(683.859375 330.036865234375) rotate(0 74.7852467168122 9.98704124731941)"><path d="M122.54 6.79 C127.52 11.22, 134.31 13.47, 148.39 22.47 M122.91 7.84 C130.9 10.2, 138.19 14.26, 149.83 21.77" stroke="#000000" stroke-width="1" fill="none"></path></g></g><g stroke-linecap="round" transform="translate(473.833984375 558.419921875) rotate(0 106.033203125 112.890625)"><path d="M72.91 4.9 C84.02 -0.83, 98.55 -0.67, 111.23 0.19 C123.91 1.05, 137.32 4.49, 149 10.06 C160.68 15.62, 172.25 23.79, 181.31 33.57 C190.36 43.34, 198.14 56.34, 203.35 68.7 C208.56 81.07, 212.2 94.22, 212.57 107.75 C212.95 121.28, 209.7 137.02, 205.58 149.88 C201.45 162.74, 196.08 174.55, 187.82 184.89 C179.56 195.22, 167.43 205.21, 156.04 211.89 C144.64 218.56, 131.83 223, 119.43 224.94 C107.03 226.88, 93.94 226.73, 81.64 223.52 C69.34 220.31, 56.33 213.6, 45.63 205.68 C34.93 197.77, 24.52 187.26, 17.45 176.04 C10.37 164.83, 5.93 151.54, 3.18 138.39 C0.42 125.25, -0.89 110.61, 0.92 97.15 C2.74 83.69, 7.94 69.61, 14.09 57.63 C20.25 45.65, 25.49 34.57, 37.86 25.26 C50.22 15.95, 77.39 5.5, 88.26 1.79 C99.13 -1.93, 102.86 1.09, 103.07 2.96 M115.67 0.54 C127.93 -0.16, 142.56 4.29, 154.15 10.43 C165.73 16.58, 176.71 27.35, 185.17 37.4 C193.64 47.45, 200.34 58.07, 204.93 70.73 C209.52 83.4, 212.66 99.36, 212.72 113.37 C212.77 127.39, 209.99 142.44, 205.27 154.83 C200.54 167.22, 192.97 177.89, 184.36 187.72 C175.75 197.55, 164.9 207.69, 153.61 213.82 C142.31 219.94, 129.49 223.21, 116.57 224.49 C103.66 225.76, 88.69 225.07, 76.13 221.45 C63.57 217.83, 51.06 211.16, 41.24 202.77 C31.42 194.38, 24 182.55, 17.2 171.11 C10.4 159.67, 2.98 147.44, 0.46 134.15 C-2.06 120.87, -0.5 105.05, 2.09 91.38 C4.67 77.7, 9.19 63.66, 15.98 52.12 C22.76 40.59, 32.67 30.22, 42.79 22.15 C52.91 14.08, 64.69 7.36, 76.67 3.72 C88.65 0.08, 108.26 0.6, 114.67 0.33 C121.09 0.07, 115.22 0.29, 115.17 2.13" stroke="#000000" stroke-width="1" fill="none"></path></g><g transform="translate(484.6484375 656.978515625) rotate(0 97 12.5)"><text x="0" y="18" font-family="Virgil, Segoe UI Emoji" font-size="20px" fill="#000000" text-anchor="start" style="white-space: pre;" direction="ltr">Download artifacts</text></g><g stroke-linecap="round" transform="translate(468.712890625 844.552734375) rotate(0 106.033203125 112.890625)"><path d="M144.37 7.8 C156.23 10.54, 166.59 18.77, 175.94 27.74 C185.29 36.72, 194.4 49.37, 200.48 61.63 C206.56 73.89, 211.01 87.94, 212.42 101.31 C213.82 114.68, 212.31 128.78, 208.91 141.86 C205.5 154.94, 199.56 168.71, 191.99 179.8 C184.42 190.89, 174.37 201.05, 163.5 208.4 C152.63 215.74, 139.51 221.2, 126.75 223.88 C114 226.57, 99.66 226.76, 86.96 224.5 C74.26 222.23, 61.48 217.43, 50.56 210.29 C39.64 203.15, 29.16 192.6, 21.45 181.66 C13.75 170.72, 7.73 157.77, 4.34 144.64 C0.96 131.52, 0.09 116.58, 1.13 102.91 C2.17 89.24, 5.24 74.73, 10.59 62.62 C15.95 50.51, 23.77 39.47, 33.27 30.25 C42.77 21.03, 55.59 12.3, 67.6 7.33 C79.62 2.36, 91.75 -0.1, 105.37 0.41 C118.99 0.92, 141.36 8.28, 149.32 10.38 C157.28 12.49, 154.06 11.62, 153.14 13.03 M110.35 1.38 C122.32 0.05, 134.66 2.62, 146.07 7.72 C157.48 12.82, 169.42 22.32, 178.79 31.98 C188.17 41.65, 196.74 53.22, 202.32 65.72 C207.9 78.23, 211.44 93.63, 212.25 106.99 C213.07 120.36, 211.2 132.93, 207.19 145.9 C203.18 158.88, 196.13 173.8, 188.18 184.83 C180.23 195.86, 170.6 205.37, 159.48 212.08 C148.36 218.78, 134.22 223.46, 121.46 225.06 C108.69 226.66, 95.2 224.51, 82.88 221.68 C70.57 218.85, 57.97 215.44, 47.55 208.08 C37.13 200.73, 27.8 188.62, 20.36 177.56 C12.93 166.5, 6.35 154.67, 2.96 141.72 C-0.43 128.78, -1.52 113.86, 0.03 99.9 C1.59 85.94, 6.09 70.03, 12.3 57.94 C18.5 45.86, 27.36 36.18, 37.27 27.39 C47.18 18.6, 59.61 9.75, 71.76 5.22 C83.9 0.69, 103.91 0.51, 110.13 0.2 C116.35 -0.11, 109.28 1.31, 109.07 3.33" stroke="#000000" stroke-width="1" fill="none"></path></g><g transform="translate(505.51953125 945.685546875) rotate(0 68 12.5)"><text x="0" y="18" font-family="Virgil, Segoe UI Emoji" font-size="20px" fill="#000000" text-anchor="start" style="white-space: pre;" direction="ltr">Upload to DH</text></g><g stroke-linecap="round"><g transform="translate(869.2265625 477.876953125) rotate(0 -101.69179341267795 59.15599128976464)"><path d="M1.13 0.91 C-32.73 20.42, -169.49 97.28, -203.35 116.39 M0.26 0.34 C-33.77 20.13, -170.74 98.6, -204.51 117.97" stroke="#000000" stroke-width="1" fill="none"></path></g><g transform="translate(869.2265625 477.876953125) rotate(0 -101.69179341267795 59.15599128976464)"><path d="M-183.64 94.37 C-190.61 103.15, -197.4 108.46, -203.12 116.31 M-185.45 94.46 C-190.37 101, -194.07 106.06, -204.45 118.9" stroke="#000000" stroke-width="1" fill="none"></path></g><g transform="translate(869.2265625 477.876953125) rotate(0 -101.69179341267795 59.15599128976464)"><path d="M-173.43 112.18 C-183.17 116.05, -192.83 116.34, -203.12 116.31 M-175.24 112.27 C-182.41 114.71, -188.49 115.6, -204.45 118.9" stroke="#000000" stroke-width="1" fill="none"></path></g></g><g stroke-linecap="round"><g transform="translate(672.78125 742.298828125) rotate(0 56.58153393644068 92.96123376446775)"><path d="M0.18 -0.37 C19.41 15.29, 112.93 63.3, 114.33 94.62 C115.74 125.93, 25.97 172.07, 8.61 187.53 M-1.19 -1.61 C18.06 13.63, 111.82 61.51, 113.87 92.72 C115.92 123.93, 28.26 170.22, 11.09 185.64" stroke="#000000" stroke-width="1" fill="none"></path></g><g transform="translate(672.78125 742.298828125) rotate(0 56.58153393644068 92.96123376446775)"><path d="M27.76 162.66 C25.54 165.05, 22.58 172.92, 12.31 184.7 M27.51 161.14 C21.3 170.02, 15.42 177.47, 11.39 185.4" stroke="#000000" stroke-width="1" fill="none"></path></g><g transform="translate(672.78125 742.298828125) rotate(0 56.58153393644068 92.96123376446775)"><path d="M39.48 179.5 C34.67 178.32, 29.21 182.61, 12.31 184.7 M39.23 177.99 C29.05 180.91, 19.07 182.47, 11.39 185.4" stroke="#000000" stroke-width="1" fill="none"></path></g></g><g transform="translate(337.71484375 562.57177734375) rotate(0 60.5 23)"><text x="0" y="32" font-family="Virgil, Segoe UI Emoji" font-size="36px" fill="#000000" text-anchor="start" style="white-space: pre;" direction="ltr">JOB 2</text></g><g transform="translate(10 10) rotate(0 52.5 23)"><text x="0" y="32" font-family="Virgil, Segoe UI Emoji" font-size="36px" fill="#000000" text-anchor="start" style="white-space: pre;" direction="ltr">JOB 1</text></g></svg>